<svg width="114" height="38" viewBox="0 0 114 38" fill="none" xmlns="http://www.w3.org/2000/svg">
<path d="M6.14844 13.794C6.14844 8.85255 10.1544 4.84668 15.0959 4.84668H30.0083C34.9499 4.84668 38.9558 8.85255 38.9558 13.794V37.6537H15.0959C10.1544 37.6537 6.14844 33.6478 6.14844 28.7063V13.794Z" fill="#ECECEC"/>
<path d="M0 8.94736C0 4.00587 4.00592 0 8.94746 0H23.8599C28.8014 0 32.8074 4.00587 32.8074 8.94736V23.8596C32.8074 28.8011 28.8014 32.807 23.8599 32.807H0V8.94736Z" fill="white"/>
<path d="M10.3592 10.9721C10.36 10.9691 10.3604 10.9677 10.3606 10.967C10.4904 10.5117 11.1358 10.5117 11.2656 10.967C11.2658 10.9677 11.2662 10.9691 11.267 10.9721C11.2692 10.9799 11.2703 10.9838 11.2714 10.9874C11.8747 13.118 13.5399 14.7832 15.6705 15.3865C15.6742 15.3876 15.6781 15.3886 15.6858 15.3908C15.6888 15.3917 15.6903 15.3921 15.6909 15.3923C16.1463 15.5221 16.1463 16.1674 15.6909 16.2973C15.6903 16.2975 15.6888 16.2979 15.6858 16.2987C15.6781 16.3009 15.6742 16.302 15.6705 16.303C13.5399 16.9064 11.8747 18.5716 11.2714 20.7022C11.2703 20.7058 11.2692 20.7097 11.267 20.7175C11.2662 20.7204 11.2658 20.7219 11.2656 20.7226C11.1358 21.1779 10.4904 21.1779 10.3606 20.7226C10.3604 20.7219 10.36 20.7204 10.3592 20.7175C10.357 20.7097 10.3559 20.7058 10.3548 20.7022C9.75148 18.5716 8.08627 16.9064 5.95567 16.303C5.95202 16.302 5.94814 16.3009 5.94036 16.2987C5.93741 16.2979 5.93594 16.2975 5.93525 16.2973C5.47992 16.1674 5.47992 15.5221 5.93525 15.3923C5.93594 15.3921 5.93741 15.3917 5.94036 15.3908C5.94814 15.3886 5.95202 15.3876 5.95567 15.3865C8.08627 14.7832 9.75148 13.118 10.3548 10.9874C10.3559 10.9838 10.357 10.9799 10.3592 10.9721Z" fill="#AD49E1"/>
<path d="M26.4618 15.7513C26.4618 17.9647 24.7093 19.759 22.5473 19.759C20.3854 19.759 18.6328 17.9647 18.6328 15.7513C18.6328 13.5379 20.3854 11.7437 22.5473 11.7437C24.7093 11.7437 26.4618 13.5379 26.4618 15.7513Z" fill="#AD49E1"/>
<path d="M111.039 27.3136V12.6357H114.005V27.3136H111.039Z" fill="white"/>
<path d="M97.8594 27.3136L101.599 12.6357H106.778L110.496 27.3136H107.53L106.713 24.3479H101.577L100.804 27.3136H97.8594ZM102.05 21.9625H106.284L104.629 15.0427H103.726L102.05 21.9625Z" fill="white"/>
<path d="M90.9375 27.3137V12.1201H93.7957V27.3137H90.9375Z" fill="white"/>
<path d="M83.6611 31.848L85.0365 27.3135H82.737L80.1797 16.5254H83.1668L85.0795 24.8851H85.6382L87.5509 16.5254H90.4306L86.7127 31.848H83.6611Z" fill="white"/>
<path d="M74.8664 27.5501C74.5083 27.5501 74.0713 27.5358 73.5555 27.5072C73.0397 27.4785 72.5097 27.4355 71.9652 27.3782C71.4351 27.3209 70.9624 27.2708 70.5469 27.2278V12.1201H73.4266V16.8695C73.6415 16.7835 73.9065 16.6975 74.2217 16.6116C74.5369 16.5256 74.8664 16.454 75.2103 16.3967C75.5684 16.325 75.898 16.2892 76.1988 16.2892C77.2017 16.2892 77.9968 16.497 78.5842 16.9124C79.186 17.3136 79.6158 17.9153 79.8737 18.7176C80.1315 19.5199 80.2605 20.53 80.2605 21.7478C80.2605 23.1804 80.0957 24.3266 79.7662 25.1862C79.451 26.0315 78.8994 26.6404 78.1115 27.0129C77.3235 27.371 76.2418 27.5501 74.8664 27.5501ZM74.8879 25.1432C75.5899 25.1432 76.1129 25.0214 76.4567 24.7779C76.8005 24.52 77.0298 24.1403 77.1444 23.6389C77.2733 23.1375 77.3378 22.5214 77.3378 21.7907C77.3378 21.0457 77.2805 20.4512 77.1659 20.007C77.0513 19.5486 76.8579 19.2191 76.5856 19.0185C76.3278 18.8036 75.9624 18.6961 75.4896 18.6961C75.2604 18.6961 75.0169 18.7248 74.759 18.7821C74.5011 18.8251 74.2504 18.8824 74.0068 18.954C73.7776 19.0113 73.5842 19.0686 73.4266 19.1259V25.0573C73.6415 25.0716 73.8922 25.0931 74.1787 25.1217C74.4653 25.1361 74.7017 25.1432 74.8879 25.1432Z" fill="white"/>
<path d="M63.2099 27.55C62.0924 27.55 61.2471 27.2706 60.6741 26.7118C60.1153 26.1388 59.8359 25.2792 59.8359 24.133C59.8359 23.3307 59.9792 22.7075 60.2657 22.2634C60.5523 21.8049 60.9749 21.4754 61.5337 21.2748C62.1067 21.0599 62.8016 20.931 63.6182 20.888L66.24 20.6516V20.0069C66.24 19.4911 66.1111 19.1329 65.8532 18.9324C65.5953 18.7175 65.2157 18.61 64.7142 18.61C64.3131 18.61 63.8475 18.6243 63.3174 18.653C62.8016 18.6816 62.2858 18.7175 61.7701 18.7604C61.2686 18.8034 60.8317 18.8464 60.4592 18.8894L60.3732 16.8693C60.7457 16.7833 61.1898 16.6974 61.7056 16.6114C62.2357 16.5111 62.7873 16.4323 63.3603 16.375C63.9334 16.3177 64.4635 16.2891 64.9506 16.2891C65.8675 16.2891 66.634 16.4037 67.2501 16.6329C67.8661 16.8621 68.3318 17.2418 68.647 17.7719C68.9621 18.2877 69.1197 18.9897 69.1197 19.8779V24.7992C69.1484 24.9998 69.2558 25.1574 69.4421 25.272C69.6283 25.3723 69.8432 25.4439 70.0868 25.4869L70.0223 27.464C69.7931 27.464 69.5639 27.464 69.3346 27.464C69.1197 27.4783 68.912 27.4783 68.7114 27.464C68.5108 27.464 68.3318 27.4497 68.1742 27.421C67.8447 27.378 67.5581 27.2921 67.3146 27.1631C67.0853 27.0342 66.8991 26.8981 66.7558 26.7548C66.5266 26.8551 66.2186 26.9697 65.8317 27.0987C65.4449 27.2276 65.0223 27.3351 64.5638 27.421C64.1197 27.507 63.6684 27.55 63.2099 27.55ZM63.8976 25.4224C64.1698 25.4224 64.4563 25.3938 64.7572 25.3365C65.0581 25.2792 65.3375 25.2147 65.5953 25.1431C65.8675 25.0571 66.0824 24.9783 66.24 24.9067V22.4353L64.048 22.6287C63.5752 22.6717 63.2314 22.8149 63.0165 23.0585C62.8159 23.2877 62.7156 23.6172 62.7156 24.0471C62.7156 24.4769 62.8088 24.8135 62.995 25.0571C63.1956 25.3006 63.4964 25.4224 63.8976 25.4224Z" fill="white"/>
<path d="M48.4844 27.3136V12.6357H54.3297C55.304 12.6357 56.1421 12.7575 56.8441 13.0011C57.5461 13.2446 58.0905 13.6386 58.4774 14.183C58.8785 14.7131 59.0791 15.4295 59.0791 16.3321C59.0791 16.9481 59.0146 17.4711 58.8857 17.9009C58.7711 18.3163 58.5848 18.6745 58.3269 18.9754C58.0834 19.2619 57.761 19.527 57.3599 19.7705C57.7897 19.9281 58.1622 20.143 58.4774 20.4152C58.8069 20.6731 59.0576 21.0241 59.2295 21.4682C59.4014 21.898 59.4874 22.4711 59.4874 23.1875C59.4874 23.9754 59.3656 24.6345 59.1221 25.1646C58.8785 25.6947 58.5275 26.1173 58.069 26.4325C57.6249 26.7477 57.102 26.9769 56.5003 27.1202C55.8985 27.2491 55.2395 27.3136 54.5231 27.3136H48.4844ZM51.45 25.1216H54.3082C54.8097 25.1216 55.2252 25.0643 55.5547 24.9497C55.8985 24.8207 56.1564 24.5987 56.3283 24.2835C56.5146 23.9683 56.6077 23.5313 56.6077 22.9726C56.6077 22.5428 56.5361 22.1917 56.3928 21.9195C56.2495 21.6473 56.0633 21.4468 55.8341 21.3178C55.6048 21.1745 55.3469 21.0743 55.0604 21.0169C54.7882 20.9596 54.516 20.931 54.2438 20.931H51.45V25.1216ZM51.45 18.8249H54.2223C54.7094 18.8249 55.1034 18.7533 55.4042 18.61C55.7051 18.4524 55.9272 18.2232 56.0704 17.9223C56.2137 17.6072 56.2853 17.2132 56.2853 16.7404C56.2853 16.067 56.1063 15.5799 55.7481 15.279C55.4042 14.9782 54.8598 14.8277 54.1148 14.8277H51.45V18.8249Z" fill="white"/>
</svg>
