<svg width="166" height="161" viewBox="0 0 166 161" fill="none" xmlns="http://www.w3.org/2000/svg">
<path d="M26.3816 68.7767C26.3816 42.267 47.8719 20.7767 74.3816 20.7767H117.75C144.26 20.7767 165.75 42.2671 165.75 68.7767V160.145H74.3816C47.8719 160.145 26.3816 138.655 26.3816 112.145V68.7767Z" fill="#EBD3F8"/>
<path d="M0.25 48.1882C0.25 21.6785 21.7403 0.188232 48.25 0.188232H91.6184C118.128 0.188232 139.618 21.6786 139.618 48.1882V91.5567C139.618 118.066 118.128 139.557 91.6184 139.557H0.25V48.1882Z" fill="#F9F9F9"/>
<path d="M44.2497 46.797C44.2532 46.7845 44.255 46.7782 44.2558 46.7753C44.8074 44.841 47.5488 44.841 48.1004 46.7753C48.1012 46.7782 48.103 46.7845 48.1065 46.797C48.1158 46.8301 48.1205 46.8466 48.1249 46.8621C50.688 55.913 57.7619 62.987 66.8129 65.5501C66.8284 65.5545 66.8449 65.5591 66.8779 65.5684C66.8904 65.572 66.8967 65.5737 66.8996 65.5746C68.8339 66.1262 68.8339 68.8675 66.8996 69.4191C66.8967 69.4199 66.8904 69.4217 66.8779 69.4252C66.8449 69.4345 66.8284 69.4392 66.8129 69.4436C57.7619 72.0067 50.688 79.0807 48.1249 88.1316C48.1205 88.1471 48.1158 88.1636 48.1065 88.1966C48.103 88.2092 48.1012 88.2154 48.1004 88.2183C47.5488 90.1527 44.8074 90.1527 44.2558 88.2183C44.255 88.2154 44.2532 88.2092 44.2497 88.1966C44.2404 88.1636 44.2357 88.1471 44.2314 88.1316C41.6682 79.0807 34.5943 72.0067 25.5433 69.4436C25.5278 69.4392 25.5113 69.4345 25.4783 69.4252C25.4658 69.4217 25.4595 69.4199 25.4566 69.4191C23.5223 68.8675 23.5223 66.1262 25.4566 65.5746C25.4595 65.5737 25.4658 65.572 25.4783 65.5684C25.5113 65.5591 25.5278 65.5545 25.5433 65.5501C34.5943 62.987 41.6682 55.913 44.2314 46.8621C44.2357 46.8466 44.2404 46.8301 44.2497 46.797Z" fill="#AD49E1"/>
<ellipse cx="96.0657" cy="67.1009" rx="16.6292" ry="17.0251" fill="#AD49E1"/>
</svg>
