<svg width="15" height="14" viewBox="0 0 15 14" fill="none" xmlns="http://www.w3.org/2000/svg">
<path d="M6.89119 0.464864C6.8923 0.460907 6.89286 0.458928 6.89312 0.458012C7.06727 -0.152671 7.93274 -0.152671 8.10688 0.458012C8.10714 0.458928 8.1077 0.460907 8.10881 0.464864C8.11175 0.475291 8.11322 0.480505 8.11461 0.4854C8.92381 3.34287 11.1571 5.57619 14.0146 6.38539C14.0195 6.38678 14.0247 6.38825 14.0351 6.39119C14.0391 6.3923 14.0411 6.39286 14.042 6.39312C14.6527 6.56727 14.6527 7.43274 14.042 7.60688C14.0411 7.60714 14.0391 7.6077 14.0351 7.60881C14.0247 7.61175 14.0195 7.61322 14.0146 7.61461C11.1571 8.42381 8.92381 10.6571 8.11461 13.5146C8.11322 13.5195 8.11175 13.5247 8.10881 13.5351C8.1077 13.5391 8.10714 13.5411 8.10688 13.542C7.93274 14.1527 7.06727 14.1527 6.89312 13.542C6.89286 13.5411 6.8923 13.5391 6.89119 13.5351C6.88825 13.5247 6.88678 13.5195 6.88539 13.5146C6.07619 10.6571 3.84287 8.42381 0.9854 7.61461C0.980505 7.61322 0.975291 7.61175 0.964864 7.60881C0.960907 7.6077 0.958928 7.60714 0.958012 7.60688C0.347329 7.43274 0.347329 6.56727 0.958012 6.39312C0.958928 6.39286 0.960907 6.3923 0.964864 6.39119C0.975291 6.38825 0.980505 6.38678 0.9854 6.38539C3.84287 5.57619 6.07619 3.34287 6.88539 0.4854C6.88678 0.480505 6.88825 0.475291 6.89119 0.464864Z" fill="#AD49E1"/>
</svg>
